<?xml version="1.0" encoding="UTF-8" standalone="no" ?>
<!DOCTYPE svg PUBLIC "-//W3C//DTD SVG 1.1//EN" "http://www.w3.org/Graphics/SVG/1.1/DTD/svg11.dtd">
<svg xmlns="http://www.w3.org/2000/svg" xmlns:xlink="http://www.w3.org/1999/xlink" version="1.1" width="1080" height="1080" viewBox="0 0 1080 1080" xml:space="preserve">
<desc>Created with Fabric.js 5.2.4</desc>
<defs>
</defs>
<rect x="0" y="0" width="100%" height="100%" fill="transparent"></rect>
<g transform="matrix(1 0 0 1 540 540)" id="728626f0-40f2-40fb-b73b-092daae3d85c"  >
<rect style="stroke: none; stroke-width: 1; stroke-dasharray: none; stroke-linecap: butt; stroke-dashoffset: 0; stroke-linejoin: miter; stroke-miterlimit: 4; fill: rgb(255,255,255); fill-rule: nonzero; opacity: 1; visibility: hidden;" vector-effect="non-scaling-stroke"  x="-540" y="-540" rx="0" ry="0" width="1080" height="1080" />
</g>
<g transform="matrix(1 0 0 1 540 540)" id="6e1ee62b-4d58-4437-bddf-3c377e1bccfe"  >
</g>
<g transform="matrix(0.14 0 0 0.14 540 540)"  >
<g style="" vector-effect="non-scaling-stroke"   >
		<g transform="matrix(0.13 0 0 -0.13 0 0)"  >
<path style="stroke: none; stroke-width: 1; stroke-dasharray: none; stroke-linecap: butt; stroke-dashoffset: 0; stroke-linejoin: miter; stroke-miterlimit: 4; fill: rgb(153,153,153); fill-rule: nonzero; opacity: 1;" vector-effect="non-scaling-stroke"  transform=" translate(-40000, -40000.06)" d="M 39720 68053 C 38747 68011 37823 67794 36955 67405 C 36649 67268 36521 67199 35895 66835 C 34755 66171 33897 65672 33815 65625 C 33766 65596 33448 65412 33110 65215 C 32772 65018 32329 64760 32125 64642 C 31922 64524 31582 64326 31370 64202 C 31158 64079 30886 63920 30765 63850 C 30513 63704 29665 63210 29170 62922 C 28559 62567 28221 62370 27335 61855 C 27044 61685 26684 61476 26535 61389 C 26387 61303 26033 61097 25750 60933 C 25467 60768 25082 60544 24895 60435 C 24474 60190 24154 60004 24034 59934 C 23927 59872 22317 58936 21835 58655 C 21654 58549 21379 58390 21225 58300 C 20875 58096 20367 57801 19970 57570 C 19802 57472 19415 57247 19110 57070 C 18451 56687 18353 56628 18150 56491 C 17114 55795 16259 54830 15692 53718 C 15231 52814 14951 51793 14893 50805 C 14882 50632 14883 29374 14893 29200 C 14900 29082 14924 28821 14935 28750 C 14937 28736 14941 28700 14945 28670 C 14961 28538 15014 28239 15055 28055 C 15472 26178 16592 24544 18190 23483 C 18405 23340 18453 23312 20010 22407 C 20200 22297 20445 22154 20555 22090 C 20665 22026 20940 21866 21165 21735 C 21391 21604 21611 21476 21655 21450 C 21699 21424 22028 21232 22385 21025 C 22743 20817 23238 20529 23485 20385 C 23733 20241 23978 20098 24030 20068 C 24082 20038 24222 19957 24340 19888 C 24934 19542 26026 18907 26545 18605 C 26988 18347 27767 17894 28105 17697 C 28276 17598 28510 17462 28625 17395 C 29119 17107 30258 16444 30765 16150 C 30886 16079 31255 15865 31585 15673 C 31915 15480 32424 15185 32715 15015 C 33301 14674 33679 14454 34360 14058 C 34610 13912 34957 13711 35130 13610 C 35303 13509 35648 13309 35895 13165 C 36519 12802 36649 12732 36955 12595 C 37798 12217 38713 11997 39635 11951 C 39852 11940 40321 11945 40520 11960 C 41403 12026 42253 12240 43045 12595 C 43351 12732 43481 12802 44105 13165 C 44353 13309 44697 13509 44870 13610 C 45043 13711 45390 13912 45640 14058 C 45890 14204 46259 14418 46460 14535 C 47870 15355 48995 16010 49210 16135 C 49306 16191 49608 16367 49880 16525 C 50369 16810 50968 17158 51375 17395 C 51491 17462 51698 17582 51835 17662 C 52106 17820 53006 18343 53455 18605 C 53891 18859 55002 19505 55660 19888 C 55778 19957 55918 20038 55970 20068 C 56022 20098 56268 20241 56515 20385 C 56763 20529 57134 20745 57340 20865 C 57546 20985 57891 21185 58105 21310 C 58320 21435 58648 21626 58835 21735 C 59022 21844 59297 22003 59445 22090 C 59594 22176 59855 22328 60025 22427 C 61625 23358 61594 23340 61810 23483 C 62960 24247 63893 25340 64454 26583 C 64829 27412 65056 28322 65107 29200 C 65117 29374 65118 50632 65107 50805 C 65049 51794 64769 52814 64308 53718 C 63705 54901 62779 55913 61650 56622 C 61557 56681 61072 56964 59990 57593 C 59800 57703 59555 57846 59445 57910 C 59335 57974 59103 58109 58930 58210 C 58757 58311 58467 58479 58285 58585 C 57777 58881 56066 59876 55965 59935 C 55845 60004 55521 60193 55105 60435 C 54918 60544 54533 60768 54250 60933 C 53967 61097 53609 61305 53455 61395 C 53012 61653 52233 62106 51895 62303 C 51591 62480 51503 62530 50830 62922 C 50335 63210 49487 63704 49235 63850 C 49114 63920 48842 64079 48630 64202 C 48418 64326 48079 64524 47875 64642 C 47672 64760 47213 65027 46855 65235 C 46498 65443 46180 65628 46150 65645 C 46120 65662 45749 65878 45325 66125 C 44902 66371 44353 66691 44105 66835 C 43479 67199 43351 67268 43045 67405 C 42250 67761 41407 67973 40520 68040 C 40381 68051 39856 68059 39720 68053 z M 40320 65719 C 40934 65677 41495 65540 42055 65296 C 42235 65217 42429 65115 42724 64943 C 42862 64863 43070 64742 43185 64675 C 43781 64328 44845 63709 45325 63430 C 45446 63359 45815 63145 46145 62953 C 46475 62760 46984 62465 47275 62295 C 47998 61875 48521 61570 48985 61300 C 49200 61175 49517 60991 49690 60890 C 49863 60789 50208 60589 50455 60445 C 50703 60301 51074 60085 51280 59965 C 51486 59845 51777 59676 51925 59590 C 52074 59503 52319 59361 52470 59273 C 52621 59185 52923 59009 53140 58883 C 53791 58504 54084 58333 54305 58205 C 54732 57957 56417 56977 56480 56940 C 56516 56919 56752 56781 57005 56634 C 57258 56487 57517 56337 57580 56300 C 57643 56263 57945 56087 58250 55910 C 58555 55732 58911 55525 59040 55450 C 59169 55375 59500 55182 59775 55022 C 60316 54707 60396 54652 60498 54523 C 60863 54064 60765 53361 60291 53041 C 60260 53020 60111 52931 59960 52843 C 59436 52537 59082 52331 58555 52025 C 58264 51855 57755 51560 57425 51367 C 57095 51175 56726 50961 56605 50890 C 56334 50733 55461 50225 55010 49962 C 54332 49567 54249 49519 53945 49343 C 53608 49147 52831 48695 52385 48435 C 51935 48173 50824 47527 50180 47152 C 50062 47083 49922 47002 49870 46972 C 49818 46942 49573 46799 49325 46655 C 49078 46511 48706 46295 48500 46175 C 48294 46055 47920 45838 47670 45692 C 47420 45547 47118 45371 47000 45302 C 46882 45234 46648 45097 46480 45000 C 45855 44636 45562 44466 45470 44412 C 45418 44382 45312 44321 45235 44276 C 45158 44230 45037 44160 44965 44118 C 44476 43834 43261 43127 42815 42867 C 42321 42580 42091 42466 41760 42342 C 41336 42184 40805 42070 40370 42042 C 40145 42028 39613 42035 39475 42055 C 39459 42057 39405 42064 39355 42070 C 38906 42126 38448 42250 38026 42427 C 37904 42479 37624 42614 37535 42665 C 37467 42704 36384 43333 35745 43705 C 35591 43795 35328 43948 35160 44045 C 34771 44271 34519 44418 34405 44485 C 34260 44570 33895 44782 33765 44857 C 33699 44895 33476 45025 33270 45145 C 33064 45265 32816 45409 32720 45465 C 32624 45521 32021 45872 31380 46244 C 30739 46617 30103 46988 29965 47068 C 29828 47148 29567 47299 29385 47405 C 28628 47846 28127 48138 27830 48310 C 27657 48411 27268 48637 26965 48813 C 26663 48989 26291 49205 26140 49293 C 25632 49588 25505 49662 25440 49700 C 25404 49721 25157 49865 24890 50020 C 24623 50175 24365 50326 24315 50355 C 24230 50405 23924 50583 23060 51085 C 22854 51205 22562 51374 22413 51461 C 22263 51549 22016 51692 21865 51780 C 21714 51868 21467 52011 21318 52099 C 21168 52186 20822 52387 20550 52545 C 19634 53078 19698 53039 19600 53127 C 19189 53499 19171 54195 19563 54592 C 19597 54627 19651 54675 19681 54697 C 19728 54732 20185 55000 21175 55575 C 21291 55642 21619 55833 21905 56000 C 22191 56167 22538 56368 22675 56448 C 22944 56604 23414 56878 23520 56940 C 23587 56979 25321 57988 25695 58205 C 25916 58333 26209 58504 26860 58883 C 27077 59009 27379 59185 27530 59273 C 27681 59361 27915 59497 28050 59575 C 28185 59654 28475 59822 28695 59950 C 28915 60078 29298 60301 29545 60445 C 29793 60589 30137 60789 30310 60890 C 30483 60991 30830 61192 31080 61338 C 31330 61484 31702 61700 31905 61818 C 32109 61936 32478 62151 32725 62295 C 32973 62439 33468 62727 33825 62935 C 34183 63143 34554 63359 34650 63415 C 34746 63471 35048 63647 35320 63805 C 35592 63963 35993 64196 36210 64323 C 36427 64449 36718 64618 36855 64698 C 36993 64778 37197 64897 37310 64963 C 37876 65294 38342 65484 38885 65605 C 39353 65709 39868 65750 40320 65719 z M 18880 50744 C 18977 50723 19106 50677 19195 50633 C 19259 50601 19465 50482 20360 49960 C 20528 49863 20791 49709 20945 49620 C 21244 49446 21529 49281 21675 49195 C 21820 49110 22185 48898 22315 48823 C 22381 48785 22604 48655 22810 48535 C 23016 48415 23264 48271 23360 48215 C 23456 48159 24059 47808 24700 47436 C 25341 47063 25978 46692 26115 46612 C 26253 46532 26514 46381 26695 46275 C 27205 45978 28028 45499 28310 45335 C 28450 45254 28768 45069 29015 44925 C 29263 44781 29634 44565 29840 44445 C 30224 44222 30506 44058 30665 43965 C 30749 43916 31120 43701 31470 43497 C 31555 43448 31677 43377 31740 43340 C 31902 43245 32828 42706 33175 42505 C 33335 42413 33528 42300 33605 42255 C 33682 42210 34038 42003 34395 41795 C 34993 41447 35222 41314 35985 40870 C 36134 40784 36451 40599 36690 40460 C 38343 39499 38224 39570 38336 39477 C 38556 39296 38714 39045 38793 38752 L 38825 38635 L 38825 27480 L 38825 16325 L 38794 16209 C 38726 15958 38616 15767 38439 15590 C 38158 15309 37777 15157 37390 15173 C 37128 15183 36949 15245 36620 15438 C 36443 15542 36008 15795 35355 16175 C 34638 16592 34355 16756 33890 17027 C 33673 17154 33371 17329 33220 17417 C 32891 17608 31726 18286 31015 18700 C 30735 18863 30393 19062 30255 19142 C 30118 19222 29728 19448 29390 19645 C 28612 20098 28357 20246 28045 20428 C 27908 20508 27689 20635 27560 20710 C 27431 20786 27282 20872 27230 20902 C 27178 20932 26789 21159 26365 21405 C 25942 21651 25348 21997 25045 22173 C 24743 22349 24371 22565 24220 22653 C 23882 22850 23614 23005 23495 23075 C 23411 23124 23040 23339 22690 23543 C 22605 23592 22483 23663 22420 23700 C 22306 23767 21091 24474 20310 24928 C 19670 25299 19545 25375 19380 25491 C 18977 25773 18584 26148 18275 26545 C 17930 26988 17644 27528 17461 28080 C 17355 28398 17262 28835 17234 29145 C 17231 29178 17225 29243 17220 29290 C 17216 29337 17211 33897 17211 39439 C 17210 48548 17211 49512 17226 49608 C 17300 50107 17659 50528 18155 50698 C 18288 50744 18379 50761 18525 50768 C 18668 50776 18765 50769 18880 50744 z M 61680 50746 C 62252 50621 62692 50165 62774 49608 C 62789 49512 62790 48548 62789 39439 C 62789 33897 62784 29337 62780 29290 C 62775 29243 62769 29178 62766 29145 C 62747 28939 62703 28688 62640 28435 C 62549 28067 62436 27760 62260 27405 C 62059 26999 61840 26668 61540 26319 C 61401 26157 61092 25858 60920 25717 C 60633 25483 60506 25402 59690 24928 C 58909 24474 57694 23767 57580 23700 C 57517 23663 57395 23592 57310 23543 C 56960 23339 56589 23124 56505 23075 C 56203 22899 54572 21950 54365 21830 C 54283 21782 53911 21566 53540 21350 C 53169 21134 52822 20932 52770 20902 C 52718 20872 52569 20786 52440 20710 C 52180 20558 51904 20398 51305 20050 C 51085 19922 50703 19699 50455 19555 C 50208 19411 49890 19226 49750 19145 C 49610 19063 49266 18863 48985 18700 C 48274 18286 47109 17608 46780 17417 C 46629 17329 46327 17154 46110 17027 C 45645 16756 45362 16592 44645 16175 C 43980 15788 43554 15540 43380 15438 C 43036 15236 42839 15172 42560 15172 C 42285 15171 42020 15252 41785 15408 C 41448 15631 41236 15960 41180 16346 C 41174 16392 41170 20165 41170 27491 C 41170 37450 41172 38576 41186 38650 C 41240 38937 41371 39191 41565 39385 C 41718 39539 41577 39452 43405 40515 C 43724 40701 44179 40965 44415 41103 C 44652 41240 44940 41408 45055 41475 C 45171 41542 45762 41886 46370 42240 C 46978 42594 47626 42970 47810 43078 C 47994 43185 48186 43296 48235 43325 C 48285 43354 48543 43505 48810 43660 C 49077 43815 49324 43959 49360 43980 C 49449 44032 49715 44187 50160 44445 C 50366 44565 50738 44781 50985 44925 C 51233 45069 51577 45269 51750 45370 C 52039 45538 52435 45768 53305 46275 C 53487 46381 53748 46532 53885 46612 C 54023 46692 54659 47063 55300 47436 C 55941 47808 56544 48159 56640 48215 C 56736 48271 56984 48415 57190 48535 C 57396 48655 57644 48799 57740 48855 C 57836 48911 58014 49014 58135 49085 C 58360 49216 58443 49264 58775 49457 C 58880 49518 59060 49622 59175 49690 C 60432 50422 60736 50598 60805 50633 C 60944 50702 61118 50753 61270 50768 C 61370 50777 61587 50766 61680 50746 z" stroke-linecap="round" />
</g>
		<g transform="matrix(0.13 0 0 -0.13 -4.35 -1846.03)"  >
<path style="stroke: none; stroke-width: 1; stroke-dasharray: none; stroke-linecap: butt; stroke-dashoffset: 0; stroke-linejoin: miter; stroke-miterlimit: 4; fill: rgb(153,153,153); fill-rule: nonzero; opacity: 1;" vector-effect="non-scaling-stroke"  transform=" translate(-39967.41, -53845.29)" d="M 39670 55883 C 39542 55877 39252 55849 39115 55829 C 37883 55654 36902 55099 36568 54389 C 36458 54157 36419 53870 36464 53638 C 36566 53113 36988 52645 37670 52304 C 38630 51824 39950 51678 41147 51920 C 42555 52205 43503 52986 43489 53851 C 43481 54388 43138 54875 42497 55263 C 42003 55562 41279 55788 40600 55854 C 40570 55857 40496 55865 40435 55870 C 40328 55881 39801 55890 39670 55883 z" stroke-linecap="round" />
</g>
		<g transform="matrix(0.13 0 0 -0.13 -2317.29 -253.88)"  >
<path style="stroke: none; stroke-width: 1; stroke-dasharray: none; stroke-linecap: butt; stroke-dashoffset: 0; stroke-linejoin: miter; stroke-miterlimit: 4; fill: rgb(153,153,153); fill-rule: nonzero; opacity: 1;" vector-effect="non-scaling-stroke"  transform=" translate(-22620.34, -41904.18)" d="M 21260 45101 C 20916 45038 20632 44851 20439 44561 C 20323 44389 20254 44231 20199 44011 C 20137 43769 20126 43664 20126 43335 C 20126 43011 20140 42862 20196 42582 C 20410 41520 21013 40418 21796 39660 C 22671 38812 23626 38490 24305 38815 C 24732 39019 25014 39474 25096 40092 C 25115 40236 25121 40585 25107 40762 C 25082 41092 25002 41467 24875 41845 C 24334 43467 23048 44841 21843 45086 C 21665 45122 21412 45128 21260 45101 z" stroke-linecap="round" />
</g>
		<g transform="matrix(0.13 0 0 -0.13 -937.26 542.62)"  >
<path style="stroke: none; stroke-width: 1; stroke-dasharray: none; stroke-linecap: butt; stroke-dashoffset: 0; stroke-linejoin: miter; stroke-miterlimit: 4; fill: rgb(153,153,153); fill-rule: nonzero; opacity: 1;" vector-effect="non-scaling-stroke"  transform=" translate(-32970.54, -35930.44)" d="M 31706 39139 C 31070 39071 30632 38596 30506 37840 C 30477 37668 30471 37578 30474 37320 C 30477 37026 30493 36877 30550 36590 C 30808 35299 31654 33964 32670 33244 C 33574 32604 34456 32542 34992 33082 C 35557 33651 35624 34807 35165 36045 C 34790 37052 34116 37982 33333 38568 C 32920 38878 32458 39082 32050 39135 C 31967 39145 31786 39148 31706 39139 z" stroke-linecap="round" />
</g>
		<g transform="matrix(0.13 0 0 -0.13 -1629.5 909.84)"  >
<path style="stroke: none; stroke-width: 1; stroke-dasharray: none; stroke-linecap: butt; stroke-dashoffset: 0; stroke-linejoin: miter; stroke-miterlimit: 4; fill: rgb(153,153,153); fill-rule: nonzero; opacity: 1;" vector-effect="non-scaling-stroke"  transform=" translate(-27778.77, -33176.25)" d="M 26510 36385 C 26502 36383 26461 36376 26420 36370 C 26142 36325 25868 36169 25687 35953 C 25487 35713 25363 35412 25304 35025 C 25275 34838 25277 34343 25308 34127 C 25417 33358 25727 32564 26196 31854 C 26737 31034 27462 30388 28150 30116 C 28425 30008 28628 29966 28885 29966 C 29078 29966 29160 29977 29315 30027 C 29856 30200 30204 30732 30267 31486 C 30279 31620 30275 31959 30261 32095 C 30199 32686 30013 33289 29704 33900 C 29111 35073 28171 35988 27249 36291 C 27052 36355 26903 36381 26700 36385 C 26604 36387 26518 36387 26510 36385 z" stroke-linecap="round" />
</g>
		<g transform="matrix(0.13 0 0 -0.13 -2321.95 1331.33)"  >
<path style="stroke: none; stroke-width: 1; stroke-dasharray: none; stroke-linecap: butt; stroke-dashoffset: 0; stroke-linejoin: miter; stroke-miterlimit: 4; fill: rgb(153,153,153); fill-rule: nonzero; opacity: 1;" vector-effect="non-scaling-stroke"  transform=" translate(-22585.38, -30015.1)" d="M 21320 33223 C 21255 33217 21087 33178 21016 33153 C 20587 32999 20288 32628 20156 32089 C 20065 31712 20062 31232 20150 30758 C 20442 29170 21594 27568 22852 26999 C 23006 26930 23202 26866 23356 26834 C 23526 26800 23770 26791 23910 26814 C 24315 26880 24626 27098 24830 27459 C 25064 27872 25141 28469 25044 29130 C 24908 30059 24436 31072 23761 31880 C 23632 32035 23342 32329 23196 32454 C 22548 33007 21899 33273 21320 33223 z" stroke-linecap="round" />
</g>
		<g transform="matrix(0.13 0 0 -0.13 -942.1 2128.33)"  >
<path style="stroke: none; stroke-width: 1; stroke-dasharray: none; stroke-linecap: butt; stroke-dashoffset: 0; stroke-linejoin: miter; stroke-miterlimit: 4; fill: rgb(153,153,153); fill-rule: nonzero; opacity: 1;" vector-effect="non-scaling-stroke"  transform=" translate(-32934.25, -24037.6)" d="M 31630 27243 C 31189 27176 30853 26926 30645 26511 C 30512 26244 30435 25865 30435 25470 C 30435 24289 31062 22868 32015 21891 C 32588 21304 33195 20944 33785 20844 C 33934 20818 34184 20821 34317 20849 C 34579 20904 34775 21008 34953 21188 C 35160 21395 35296 21662 35374 22011 C 35441 22311 35452 22688 35404 23070 C 35194 24745 33921 26551 32569 27094 C 32288 27206 32072 27251 31817 27249 C 31728 27248 31644 27246 31630 27243 z" stroke-linecap="round" />
</g>
		<g transform="matrix(0.13 0 0 -0.13 2317.26 -254.01)"  >
<path style="stroke: none; stroke-width: 1; stroke-dasharray: none; stroke-linecap: butt; stroke-dashoffset: 0; stroke-linejoin: miter; stroke-miterlimit: 4; fill: rgb(153,153,153); fill-rule: nonzero; opacity: 1;" vector-effect="non-scaling-stroke"  transform=" translate(-57379.42, -41905.15)" d="M 58300 45110 C 57584 45024 56777 44488 56114 43659 C 55471 42856 55037 41873 54911 40937 C 54879 40703 54876 40303 54904 40092 C 54985 39475 55268 39019 55695 38815 C 55965 38686 56290 38657 56640 38732 C 56845 38775 57134 38888 57345 39007 C 58130 39450 58853 40259 59335 41235 C 59614 41799 59778 42324 59857 42905 C 59870 43005 59874 43104 59874 43335 C 59874 43664 59863 43769 59801 44011 C 59746 44231 59677 44389 59561 44561 C 59319 44923 58936 45123 58492 45119 C 58422 45118 58336 45114 58300 45110 z" stroke-linecap="round" />
</g>
		<g transform="matrix(0.13 0 0 -0.13 1629.47 910.02)"  >
<path style="stroke: none; stroke-width: 1; stroke-dasharray: none; stroke-linecap: butt; stroke-dashoffset: 0; stroke-linejoin: miter; stroke-miterlimit: 4; fill: rgb(153,153,153); fill-rule: nonzero; opacity: 1;" vector-effect="non-scaling-stroke"  transform=" translate(-52221.05, -33174.93)" d="M 53140 36380 C 52781 36334 52394 36177 52020 35927 C 51778 35765 51581 35601 51350 35370 C 50476 34495 49858 33240 49739 32095 C 49725 31959 49721 31620 49733 31486 C 49800 30688 50189 30137 50780 29999 C 50956 29958 51215 29952 51400 29985 C 52306 30148 53298 30975 53980 32135 C 54093 32328 54282 32713 54359 32905 C 54527 33328 54635 33721 54692 34127 C 54722 34344 54725 34840 54696 35025 C 54581 35772 54210 36232 53615 36365 C 53533 36384 53238 36393 53140 36380 z" stroke-linecap="round" />
</g>
		<g transform="matrix(0.13 0 0 -0.13 942.1 2128.55)"  >
<path style="stroke: none; stroke-width: 1; stroke-dasharray: none; stroke-linecap: butt; stroke-dashoffset: 0; stroke-linejoin: miter; stroke-miterlimit: 4; fill: rgb(153,153,153); fill-rule: nonzero; opacity: 1;" vector-effect="non-scaling-stroke"  transform=" translate(-47065.77, -24035.92)" d="M 47975 27243 C 47364 27149 46763 26807 46185 26225 C 45300 25333 44687 24073 44579 22920 C 44552 22625 44571 22259 44626 22011 C 44703 21666 44832 21410 45033 21203 C 45219 21011 45413 20906 45683 20849 C 45818 20820 46068 20818 46215 20844 C 46814 20949 47411 21302 47985 21891 C 48868 22797 49487 24112 49557 25233 C 49604 25978 49435 26553 49064 26911 C 48906 27063 48732 27158 48505 27217 C 48417 27239 48382 27243 48205 27245 C 48095 27247 47992 27246 47975 27243 z" stroke-linecap="round" />
</g>
</g>
</g>
</svg>