<?xml version="1.0" encoding="UTF-8"?>
<svg version="1.1" xmlns="http://www.w3.org/2000/svg" width="512" height="512">
<path d="M0 0 C7.09999847 4.55128107 12.77177531 11.79689697 18.19921875 18.1484375 C20.74359862 21.06804914 23.37436652 23.90299077 26.0078125 26.7421875 C30.33306424 31.40904723 34.61546656 36.11000347 38.86328125 40.84765625 C43.25152804 45.71928995 47.69655059 50.53931074 52.1328125 55.3671875 C58.06299921 61.82086656 63.97292428 68.29051486 69.828125 74.8125 C74.23113786 79.69312782 78.68533759 84.52710791 83.1328125 89.3671875 C89.06050814 95.81815558 94.9687497 102.28437466 100.8203125 108.8046875 C103.87640711 112.19117071 106.96266862 115.54963564 110.04907227 118.90844727 C112.90883454 122.02351875 115.74796609 125.15570425 118.5703125 128.3046875 C122.05729347 132.19089348 125.58613235 136.03561557 129.1328125 139.8671875 C133.41505858 144.49341067 137.65489062 149.15397373 141.86328125 153.84765625 C146.25152804 158.71928995 150.69655059 163.53931074 155.1328125 168.3671875 C161.06299921 174.82086656 166.97292428 181.29051486 172.828125 187.8125 C177.23113786 192.69312782 181.68533759 197.52710791 186.1328125 202.3671875 C192.05677096 208.8140885 197.9625019 215.2751536 203.80859375 221.79296875 C206.46091151 224.73057784 209.1397221 227.64291032 211.8203125 230.5546875 C215.6821534 234.75207961 219.4617332 239.00157968 223.1328125 243.3671875 C227.1249176 241.80384564 229.54882328 239.0066428 232.3203125 235.8671875 C232.80371094 235.32964844 233.28710938 234.79210937 233.78515625 234.23828125 C235.23964229 232.61920863 236.68645292 230.99351822 238.1328125 229.3671875 C239.63197988 227.69977185 241.13191626 226.03304711 242.6328125 224.3671875 C243.715625 223.160625 243.715625 223.160625 244.8203125 221.9296875 C247.87640711 218.54320429 250.96266862 215.18473936 254.04907227 211.82592773 C256.90883454 208.71085625 259.74796609 205.57867075 262.5703125 202.4296875 C266.56729628 197.9750884 270.62355659 193.57800271 274.68896484 189.18603516 C278.45008677 185.11837162 282.16490789 181.0115712 285.86328125 176.88671875 C290.71837659 171.49681084 295.64060792 166.16766945 300.54882812 160.82617188 C305.26506813 155.69245005 309.97563841 150.55471593 314.6328125 145.3671875 C320.22201033 139.14149739 325.88805308 132.98665672 331.54882812 126.82617188 C337.00383041 120.88829249 342.43473139 114.93076359 347.8203125 108.9296875 C350.87640711 105.54320429 353.96266862 102.18473936 357.04907227 98.82592773 C359.90883454 95.71085625 362.74796609 92.57867075 365.5703125 89.4296875 C369.56729628 84.9750884 373.62355659 80.57800271 377.68896484 76.18603516 C381.45008677 72.11837162 385.16490789 68.0115712 388.86328125 63.88671875 C393.71837659 58.49681084 398.64060792 53.16766945 403.54882812 47.82617188 C408.26506813 42.69245005 412.97563841 37.55471593 417.6328125 32.3671875 C421.36008845 28.21545308 425.11469017 24.08954427 428.89526367 19.98632812 C431.30655813 17.36823094 433.70047221 14.73734365 436.06640625 12.078125 C436.54867676 11.5404248 437.03094727 11.00272461 437.52783203 10.44873047 C438.86521075 8.95656042 440.19647658 7.4589181 441.52734375 5.9609375 C446.88506126 0.62731767 451.448725 -1.72039584 458.8828125 -1.9453125 C465.00859984 -1.85522739 469.44506881 -0.20707367 473.890625 4.05078125 C479.43424763 10.27731391 480.62674066 14.75194439 480.421875 23.1328125 C479.54550496 32.93868263 472.11643812 39.03058646 465.62402344 45.79931641 C463.56035691 47.96907188 461.56361348 50.19531943 459.5703125 52.4296875 C454.00471722 58.63708115 448.35768383 64.76936201 442.71679688 70.90820312 C437.26179459 76.84608251 431.83089361 82.80361141 426.4453125 88.8046875 C423.38921789 92.19117071 420.30295638 95.54963564 417.21655273 98.90844727 C414.35679046 102.02351875 411.51765891 105.15570425 408.6953125 108.3046875 C404.69832872 112.7592866 400.64206841 117.15637229 396.57666016 121.54833984 C392.8180327 125.61330561 389.10531407 129.71703656 385.41015625 133.83984375 C382.3675831 137.2164215 379.29162506 140.56199231 376.21630859 143.90869141 C373.35664638 147.02369842 370.51758213 150.15578992 367.6953125 153.3046875 C363.69832872 157.7592866 359.64206841 162.15637229 355.57666016 166.54833984 C351.81553823 170.61600338 348.10071711 174.7228038 344.40234375 178.84765625 C339.54724841 184.23756416 334.62501708 189.56670555 329.71679688 194.90820312 C324.26179459 200.84608251 318.83089361 206.80361141 313.4453125 212.8046875 C310.38921789 216.19117071 307.30295638 219.54963564 304.21655273 222.90844727 C301.35679046 226.02351875 298.51765891 229.15570425 295.6953125 232.3046875 C291.69832872 236.7592866 287.64206841 241.15637229 283.57666016 245.54833984 C279.81553823 249.61600338 276.10071711 253.7228038 272.40234375 257.84765625 C267.54724841 263.23756416 262.62501708 268.56670555 257.71679688 273.90820312 C256.77775829 274.93036546 255.83895496 275.95274398 254.90039062 276.9753418 C253.97795476 277.9800918 253.05478679 278.98417021 252.13085938 279.98754883 C249.9314287 282.3812098 247.75950847 284.79324102 245.6171875 287.23828125 C244.83859375 288.12644531 244.06 289.01460938 243.2578125 289.9296875 C242.24074219 291.10724609 242.24074219 291.10724609 241.203125 292.30859375 C236.10663343 297.37623725 231.29084105 298.50981094 224.3203125 298.6171875 C214.95833518 298.49236114 209.58194495 294.75604769 203.1328125 288.3671875 C200.89113875 285.98102281 198.7086064 283.55303616 196.54296875 281.09765625 C193.98243092 278.19682004 191.3770939 275.33979518 188.7578125 272.4921875 C187.82551083 271.47657168 186.89321924 270.46094661 185.9609375 269.4453125 C185.01828659 268.41921808 184.0755781 267.39317655 183.1328125 266.3671875 C177.20262579 259.91350844 171.29270072 253.44386014 165.4375 246.921875 C161.03448714 242.04124718 156.58028741 237.20726709 152.1328125 232.3671875 C146.20262579 225.91350844 140.29270072 219.44386014 134.4375 212.921875 C130.03448714 208.04124718 125.58028741 203.20726709 121.1328125 198.3671875 C115.20511686 191.91621942 109.2968753 185.45000034 103.4453125 178.9296875 C100.38921789 175.54320429 97.30295638 172.18473936 94.21655273 168.82592773 C91.35679046 165.71085625 88.51765891 162.57867075 85.6953125 159.4296875 C82.20833153 155.54348152 78.67949265 151.69875943 75.1328125 147.8671875 C70.85056642 143.24096433 66.61073438 138.58040127 62.40234375 133.88671875 C58.01409696 129.01508505 53.56907441 124.19506426 49.1328125 119.3671875 C43.20511686 112.91621942 37.2968753 106.45000034 31.4453125 99.9296875 C28.38921789 96.54320429 25.30295638 93.18473936 22.21655273 89.82592773 C19.35679046 86.71085625 16.51765891 83.57867075 13.6953125 80.4296875 C10.20833153 76.54348152 6.67949265 72.69875943 3.1328125 68.8671875 C-1.1451081 64.24563726 -5.38339903 59.59237116 -9.58203125 54.8984375 C-11.24920671 53.05172007 -12.92671177 51.21982496 -14.62109375 49.3984375 C-32.47642048 30.18693303 -32.47642048 30.18693303 -32.24609375 16.59765625 C-31.52227717 10.4265603 -28.38585349 6.54259795 -23.8671875 2.4921875 C-16.79549493 -2.51692807 -8.12224641 -3.45277682 0 0 Z " fill="#000000" transform="translate(31.8671875,107.6328125)"/>
</svg>
