<?xml version="1.0" encoding="UTF-8"?>
<svg version="1.1" xmlns="http://www.w3.org/2000/svg" width="512" height="512">
<path d="M0 0 C2.76605946 2.54926021 5.18845799 5.38142612 7.625 8.2421875 C10.62929491 11.67417717 13.75235035 14.98836277 16.875 18.3125 C20.96720494 22.6750449 25.00663683 27.0574653 28.90625 31.59375 C31.83292359 34.89206468 34.85863998 38.09629832 37.875 41.3125 C41.96682367 45.67541758 46.00662062 50.05744643 49.90625 54.59375 C52.83292359 57.89206468 55.85863998 61.09629832 58.875 64.3125 C62.96682367 68.67541758 67.00662062 73.05744643 70.90625 77.59375 C73.83292359 80.89206468 76.85863998 84.09629832 79.875 87.3125 C87.23780488 95.16310976 87.23780488 95.16310976 90.375 98.8125 C94.31662792 103.39439235 98.48236126 107.76783415 102.61450195 112.17700195 C106.68712396 116.52709335 110.703536 120.92112159 114.67578125 125.36328125 C117.18235565 128.15479483 119.71311351 130.92357525 122.25 133.6875 C122.71027588 134.18902588 123.17055176 134.69055176 123.64477539 135.20727539 C125.05449633 136.74267579 126.46466359 138.27766493 127.875 139.8125 C138.23690257 151.08910846 138.23690257 151.08910846 143.3125 156.75 C147.31017373 161.20536804 151.36700885 165.60333519 155.43334961 169.99584961 C159.17026882 174.03699884 162.85799106 178.11960596 166.53125 182.21875 C169.2896836 185.27141652 172.0800031 188.29334295 174.875 191.3125 C178.40197616 195.12234141 181.91010214 198.94587485 185.375 202.8125 C189.80870714 207.75840436 194.3144342 212.63536654 198.82421875 217.51171875 C205.76415811 225.01620354 212.6629008 232.55585314 219.48046875 240.171875 C221.28046552 242.15686328 223.09384546 244.12300047 224.92578125 246.078125 C225.4556665 246.64539307 225.98555176 247.21266113 226.53149414 247.79711914 C227.55973818 248.89593976 228.59124841 249.99171735 229.62670898 251.08374023 C236.86153835 258.82482511 240.26076844 264.68129705 240.15234375 275.51171875 C239.63423096 281.67799065 237.39504353 285.22175677 233.1875 289.625 C226.86773485 293.79842982 220.91998389 295.64338985 213.3359375 294.48828125 C203.85639413 291.88516855 197.64723158 283.59348099 191.38916016 276.51611328 C189.02306066 273.85396521 186.60264147 271.24257277 184.1875 268.625 C180.91661785 265.06028794 177.66750796 261.47680744 174.4375 257.875 C170.43982627 253.41963196 166.38299115 249.02166481 162.31665039 244.62915039 C158.57973118 240.58800116 154.89200894 236.50539404 151.21875 232.40625 C148.4603164 229.35358348 145.6699969 226.33165705 142.875 223.3125 C139.34802384 219.50265859 135.83989786 215.67912515 132.375 211.8125 C127.94129286 206.86659564 123.4355658 201.98963346 118.92578125 197.11328125 C112.72183239 190.4046578 106.53813207 183.6778631 100.4375 176.875 C96.43982627 172.41963196 92.38299115 168.02166481 88.31665039 163.62915039 C84.57973118 159.58800116 80.89200894 155.50539404 77.21875 151.40625 C74.4603164 148.35358348 71.6699969 145.33165705 68.875 142.3125 C64.61614677 137.7120846 60.40258158 133.0751635 56.21875 128.40625 C53.4603164 125.35358348 50.6699969 122.33165705 47.875 119.3125 C44.34802384 115.50265859 40.83989786 111.67912515 37.375 107.8125 C32.94129286 102.86659564 28.4355658 97.98963346 23.92578125 93.11328125 C16.98770302 85.61080898 10.09455647 78.07005577 3.2734375 70.4609375 C1.45655523 68.45467336 -0.37061198 66.46113888 -2.2109375 64.4765625 C-2.74533447 63.900271 -3.27973145 63.32397949 -3.83032227 62.73022461 C-4.87350435 61.60717563 -5.91817785 60.48550948 -6.96459961 59.36547852 C-9.82926787 56.28254982 -12.53781588 53.13712378 -15.125 49.8125 C-18.1996802 51.15767259 -20.00071902 52.54156454 -22.125 55.125 C-25.28627906 58.86044299 -28.54655846 62.4768824 -31.875 66.0625 C-32.91803742 67.18873849 -33.96100559 68.31504112 -35.00390625 69.44140625 C-35.52355957 70.00230957 -36.04321289 70.56321289 -36.57861328 71.14111328 C-42.28208178 77.30561365 -47.95548997 83.49757875 -53.5625 89.75 C-58.01897711 94.71488091 -62.54448062 99.61384952 -67.07421875 104.51171875 C-73.27816761 111.2203422 -79.46186793 117.9471369 -85.5625 124.75 C-89.56017373 129.20536804 -93.61700885 133.60333519 -97.68334961 137.99584961 C-100.68896073 141.24615351 -103.67051924 144.51547075 -106.625 147.8125 C-110.60030054 152.24870495 -114.63707668 156.62504398 -118.68359375 160.99609375 C-121.68910722 164.24633097 -124.67059609 167.5155565 -127.625 170.8125 C-131.60030054 175.24870495 -135.63707668 179.62504398 -139.68359375 183.99609375 C-142.68910722 187.24633097 -145.67059609 190.5155565 -148.625 193.8125 C-153.05870714 198.75840436 -157.5644342 203.63536654 -162.07421875 208.51171875 C-168.27816761 215.2203422 -174.46186793 221.9471369 -180.5625 228.75 C-184.56017373 233.20536804 -188.61700885 237.60333519 -192.68334961 241.99584961 C-195.68896073 245.24615351 -198.67051924 248.51547075 -201.625 251.8125 C-205.08989927 255.67912672 -208.59808937 259.50259639 -212.125 263.3125 C-215.71116036 267.18749379 -219.28143542 271.07454077 -222.8125 275 C-223.52535156 275.79019531 -224.23820312 276.58039063 -224.97265625 277.39453125 C-226.47721692 279.08477272 -227.96277736 280.79203326 -229.43359375 282.51171875 C-235.02366394 288.9690511 -239.26577571 293.43111867 -248 294.75 C-254.94638868 295.17163209 -260.52619407 293.34285558 -266 289.0625 C-271.2340178 284.07136006 -272.30521793 279.48090517 -272.625 272.4375 C-272.33207142 262.19671696 -267.5328708 256.8136885 -260.36328125 249.97265625 C-258.43433176 248.11103484 -256.67536688 246.22454397 -254.9375 244.1875 C-251.44888553 240.11881146 -247.79199405 236.21956928 -244.125 232.3125 C-238.791642 226.63804689 -238.791642 226.63804689 -233.625 220.8125 C-229.68337208 216.23060765 -225.51763874 211.85716585 -221.38549805 207.44799805 C-217.31287604 203.09790665 -213.296464 198.70387841 -209.32421875 194.26171875 C-206.81764435 191.47020517 -204.28688649 188.70142475 -201.75 185.9375 C-201.28972412 185.43597412 -200.82944824 184.93444824 -200.35522461 184.41772461 C-198.4737045 182.36846319 -196.59132592 180.31999124 -194.70898438 178.27148438 C-190.0126188 173.15939626 -185.3217486 168.04364844 -180.6875 162.875 C-176.68982627 158.41963196 -172.63299115 154.02166481 -168.56665039 149.62915039 C-165.56103927 146.37884649 -162.57948076 143.10952925 -159.625 139.8125 C-155.64969946 135.37629505 -151.61292332 130.99995602 -147.56640625 126.62890625 C-144.56089278 123.37866903 -141.57940391 120.1094435 -138.625 116.8125 C-134.19129286 111.86659564 -129.6855658 106.98963346 -125.17578125 102.11328125 C-118.97183239 95.4046578 -112.78813207 88.6778631 -106.6875 81.875 C-102.68982627 77.41963196 -98.63299115 73.02166481 -94.56665039 68.62915039 C-91.56103927 65.37884649 -88.57948076 62.10952925 -85.625 58.8125 C-81.64969946 54.37629505 -77.61292332 49.99995602 -73.56640625 45.62890625 C-70.56089278 42.37866903 -67.57940391 39.1094435 -64.625 35.8125 C-61.16009933 31.94587171 -57.65184503 28.12246586 -54.125 24.3125 C-50.47963974 20.37228596 -46.84700213 16.42205791 -43.25 12.4375 C-42.53199219 11.64214844 -41.81398437 10.84679687 -41.07421875 10.02734375 C-39.3422557 8.05936169 -37.70232435 6.04428505 -36.0625 4 C-32.43042605 -0.2676869 -27.957266 -3.26701355 -22.625 -5 C-14.00819706 -5.64626022 -7.24824473 -5.07377131 0 0 Z " fill="#000000" transform="translate(272.125,111.1875)"/>
</svg>
